<?xml version="1.0" encoding="UTF-8"?>
<svg version="1.1" xmlns="http://www.w3.org/2000/svg" width="1313" height="502">
<path d="M0 0 C433.29 0 866.58 0 1313 0 C1313 165.66 1313 331.32 1313 502 C879.71 502 446.42 502 0 502 C0 336.34 0 170.68 0 0 Z " fill="#FEFEFE" transform="translate(0,0)"/>
<path d="M0 0 C11.55 0 23.1 0 35 0 C35 8.91 35 17.82 35 27 C41.93 27 48.86 27 56 27 C58.15168718 30.74674874 60.29652869 34.49713511 62.4375 38.25 C63.04916016 39.31347656 63.66082031 40.37695312 64.29101562 41.47265625 C64.87431641 42.49746094 65.45761719 43.52226562 66.05859375 44.578125 C66.59798584 45.52075195 67.13737793 46.46337891 67.69311523 47.43457031 C68.83208229 49.67037563 69.53372922 51.55018811 70 54 C70.66 54 71.32 54 72 54 C72.21527344 53.22269531 72.43054688 52.44539063 72.65234375 51.64453125 C74.47717061 46.7095647 76.99633157 42.2711171 79.5625 37.6875 C80.06974609 36.76904297 80.57699219 35.85058594 81.09960938 34.90429688 C84.84700737 28.15299263 84.84700737 28.15299263 86 27 C88.8116338 26.91138008 91.59858255 26.88477645 94.41015625 26.90234375 C95.25219101 26.9037587 96.09422577 26.90517365 96.96177673 26.90663147 C99.66205335 26.91224737 102.36224828 26.92480252 105.0625 26.9375 C106.88867068 26.94251295 108.71484266 26.94707621 110.54101562 26.95117188 C115.02737542 26.96222196 119.51367384 26.97949721 124 27 C123.64301025 27.65194336 123.28602051 28.30388672 122.91821289 28.97558594 C120.19491503 33.95749719 117.48661384 38.94671295 114.80859375 43.953125 C108.89346625 55.0077829 102.92161863 66.02351642 96.75 76.9375 C96.20142334 77.9078418 95.65284668 78.87818359 95.08764648 79.87792969 C93.13280673 83.31864589 91.19592607 86.7061109 89 90 C88.67539843 91.91448052 88.67539843 91.91448052 88.68115234 94.01245117 C88.65134781 95.2133564 88.65134781 95.2133564 88.62094116 96.43852234 C88.60938995 97.29798965 88.59783875 98.15745697 88.5859375 99.04296875 C88.56657135 99.9265657 88.5472052 100.81016266 88.5272522 101.72053528 C88.46747195 104.54275866 88.42107734 107.36502286 88.375 110.1875 C88.33681878 112.10092925 88.29776696 114.01434133 88.2578125 115.92773438 C88.16013269 120.6184003 88.08055239 125.3088834 88 130 C76.45 130 64.9 130 53 130 C53.11794922 125.96072266 53.11794922 125.96072266 53.23828125 121.83984375 C53.59176006 101.28400339 53.59914286 84.96151765 40.51806641 68.02832031 C38.84925011 65.79857992 37.43291363 63.38818939 36 61 C35.67 83.77 35.34 106.54 35 130 C23.12 130 11.24 130 -1 130 C-1.33 127.36 -1.66 124.72 -2 122 C-2.49886719 122.38671875 -2.99773438 122.7734375 -3.51171875 123.171875 C-16.94010342 132.91167286 -31.77203633 133.26982328 -47.68432617 131.50488281 C-52.70186179 130.9926453 -57.68598169 130.78590974 -62.7265625 130.68359375 C-64.03710098 130.6524221 -64.03710098 130.6524221 -65.37411499 130.62062073 C-68.12434165 130.55601374 -70.87465135 130.49666027 -73.625 130.4375 C-75.50651849 130.39422994 -77.38802904 130.35061318 -79.26953125 130.30664062 C-83.84627232 130.20042564 -88.42309562 130.09891711 -93 130 C-95 125 -95 125 -97 120 C-97.56074219 118.69095703 -97.56074219 118.69095703 -98.1328125 117.35546875 C-99 115 -99 115 -99 112 C-106.92 112.33 -114.84 112.66 -123 113 C-124.98 118.61 -126.96 124.22 -129 130 C-148.47 130 -167.94 130 -188 130 C-188.33 116.8 -188.66 103.6 -189 90 C-192.96 95.445 -192.96 95.445 -197 101 C-200.95622996 102.23199834 -202.67565957 102.57973381 -206.5625 102.375 C-207.77969727 102.43880859 -207.77969727 102.43880859 -209.02148438 102.50390625 C-211.44140625 102.4609375 -211.44140625 102.4609375 -216 101 C-218.31 97.37 -220.62 93.74 -223 90 C-223.33 103.2 -223.66 116.4 -224 130 C-243.14 130 -262.28 130 -282 130 C-288 115 -288 115 -288 112 C-299.88 112.495 -299.88 112.495 -312 113 C-313.98 118.61 -315.96 124.22 -318 130 C-324.6 130 -331.2 130 -338 130 C-338 132.31 -338 134.62 -338 137 C-338.25610352 139.15795898 -338.25610352 139.15795898 -338.62890625 140.99609375 C-338.84474365 142.0619873 -338.84474365 142.0619873 -339.06494141 143.14941406 C-339.22913574 143.90448242 -339.39333008 144.65955078 -339.5625 145.4375 C-339.73958496 146.2531543 -339.91666992 147.06880859 -340.09912109 147.90917969 C-347.07625742 178.97696299 -358.34083601 210.02161519 -380 234 C-381.14275391 235.30324219 -381.14275391 235.30324219 -382.30859375 236.6328125 C-384.50858476 239.11846845 -386.74509403 241.56419672 -389 244 C-389.5259375 244.59167969 -390.051875 245.18335938 -390.59375 245.79296875 C-405.03579089 261.30342593 -427.88472586 274.09479097 -449.24780273 275.10644531 C-472.60829717 275.69933932 -492.33427516 270.68441042 -509.7746582 254.18237305 C-529.8781531 234.66283839 -543.07492688 207.87242936 -547 180 C-546.67 179.01 -546.34 178.02 -546 177 C-545.5875 177.75023437 -545.175 178.50046875 -544.75 179.2734375 C-540.71870175 186.41819378 -536.3351467 192.77732422 -531 199 C-530.30003906 199.845625 -529.60007812 200.69125 -528.87890625 201.5625 C-515.36152373 217.36892234 -495.69350229 227.77443202 -475 230 C-471.35277926 230.11055395 -467.71093569 230.09491946 -464.0625 230.0625 C-462.6074707 230.05573242 -462.6074707 230.05573242 -461.12304688 230.04882812 C-458.7486324 230.0371315 -456.37434979 230.02074086 -454 230 C-454.55429687 229.27554688 -455.10859375 228.55109375 -455.6796875 227.8046875 C-456.76636719 226.35449219 -456.76636719 226.35449219 -457.875 224.875 C-458.95394531 223.44800781 -458.95394531 223.44800781 -460.0546875 221.9921875 C-464.9271323 214.49762382 -465.11525925 205.67081005 -464 197 C-462.83761353 193.2438586 -461.2254277 190.22687016 -459 187 C-458.278125 185.9275 -457.55625 184.855 -456.8125 183.75 C-449.24748653 176.35309794 -441.61580209 173.70403481 -431.26391602 173.68310547 C-422.82185248 173.83696015 -415.82096385 176.32482785 -409.6015625 182.17578125 C-403.97582408 188.58363452 -401.27435922 194.4948641 -401 203 C-378.91416567 184.92416352 -360.49222789 157.30251267 -352 130 C-352.66 130 -353.32 130 -354 130 C-353.40858213 124.75025901 -352.16560639 120.01068063 -350.41015625 115.0234375 C-350.0202652 113.89144676 -350.0202652 113.89144676 -349.62249756 112.73658752 C-348.77505613 110.28064177 -347.91883808 107.82785623 -347.0625 105.375 C-346.46840262 103.65848912 -345.87490298 101.94177125 -345.28198242 100.22485352 C-344.0877624 96.76968244 -342.89018958 93.3157048 -341.68945312 89.86279297 C-340.20734139 85.59989673 -338.73360651 81.33418673 -337.265625 77.06640625 C-335.65715384 72.39070576 -334.04532886 67.71619646 -332.4296875 63.04296875 C-330.91517347 58.65934041 -329.4076956 54.27340177 -327.9077301 49.88478088 C-326.97715317 47.16261065 -326.0444741 44.44116269 -325.11166382 41.71975708 C-324.66532409 40.41565144 -324.22001698 39.11119189 -323.77578735 37.80636597 C-323.16434153 36.01064184 -322.54906693 34.21622277 -321.93359375 32.421875 C-321.58353271 31.39674805 -321.23347168 30.37162109 -320.87280273 29.31542969 C-320 27 -320 27 -319 26 C-316.26105915 25.91141354 -313.5474673 25.88476521 -310.80859375 25.90234375 C-309.98875504 25.9037587 -309.16891632 25.90517365 -308.32423401 25.90663147 C-305.69528618 25.91224711 -303.06642227 25.92480221 -300.4375 25.9375 C-298.65950643 25.94251299 -296.88151154 25.94707624 -295.10351562 25.95117188 C-290.73564455 25.96222161 -286.36783652 25.97949669 -282 26 C-278.87631164 32.68462926 -276.32270292 39.48250065 -273.92578125 46.45703125 C-273.55647995 47.52241623 -273.18717865 48.58780121 -272.8066864 49.68547058 C-272.03259937 51.92110133 -271.26039451 54.1573846 -270.48999023 56.39428711 C-269.30956114 59.82103141 -268.12304002 63.24561989 -266.93554688 66.66992188 C-266.18193597 68.84883534 -265.42866862 71.02786767 -264.67578125 73.20703125 C-264.32163651 74.2299678 -263.96749176 75.25290436 -263.60261536 76.30683899 C-263.11156563 77.73433723 -263.11156563 77.73433723 -262.6105957 79.19067383 C-262.32287796 80.02512527 -262.03516022 80.85957672 -261.73872375 81.71931458 C-261.06934305 83.78591498 -260.52686128 85.89255488 -260 88 C-259.67 67.87 -259.34 47.74 -259 27 C-253.39 26.773125 -247.78 26.54625 -242 26.3125 C-240.24558594 26.21235596 -238.49117187 26.11221191 -236.68359375 26.0090332 C-225.6501342 25.64051527 -225.6501342 25.64051527 -221.24584961 29.26904297 C-219.18836834 32.08737242 -217.5689509 34.88755948 -216 38 C-215.18985566 39.21282583 -214.36174514 40.41417687 -213.50390625 41.59375 C-212.86324219 42.5528125 -212.22257812 43.511875 -211.5625 44.5 C-210.90378906 45.4796875 -210.24507812 46.459375 -209.56640625 47.46875 C-208 50 -208 50 -207 53 C-204.072067 50.2289277 -201.79131763 47.41866184 -199.58203125 44.05078125 C-198.96779297 43.12072266 -198.35355469 42.19066406 -197.72070312 41.23242188 C-197.09099609 40.26884766 -196.46128906 39.30527344 -195.8125 38.3125 C-194.5490769 36.39133503 -193.28480068 34.47073074 -192.01953125 32.55078125 C-191.46370361 31.70169189 -190.90787598 30.85260254 -190.33520508 29.9777832 C-189 28 -189 28 -188 27 C-185.3339846 26.91145653 -182.69330601 26.884681 -180.02734375 26.90234375 C-179.32065552 26.90335083 -178.61396729 26.90435791 -177.88586426 26.90539551 C-175.23639309 26.91064255 -172.58694498 26.92460371 -169.9375 26.9375 C-164.018125 26.958125 -158.09875 26.97875 -152 27 C-151.67 46.14 -151.34 65.28 -151 85 C-149.56785156 80.82472656 -148.13570312 76.64945312 -146.66015625 72.34765625 C-145.51925994 69.02684505 -144.3777764 65.70623701 -143.23589325 62.38576508 C-142.02918759 58.87626986 -140.82352885 55.36642284 -139.62036133 51.85571289 C-138.46229727 48.47673936 -137.30140632 45.09874957 -136.13851738 41.72143364 C-135.6945274 40.43034196 -135.25157121 39.13889432 -134.80964851 37.84709358 C-134.19229389 36.04304839 -133.57097784 34.24036028 -132.94946289 32.43774414 C-132.41984703 30.8955294 -132.41984703 30.8955294 -131.87953186 29.32215881 C-131 27 -131 27 -130 26 C-127.26105915 25.91141354 -124.5474673 25.88476521 -121.80859375 25.90234375 C-120.98875504 25.9037587 -120.16891632 25.90517365 -119.32423401 25.90663147 C-116.69528618 25.91224711 -114.06642227 25.92480221 -111.4375 25.9375 C-109.65950643 25.94251299 -107.88151154 25.94707624 -106.10351562 25.95117188 C-101.73564455 25.96222161 -97.36783652 25.97949669 -93 26 C-89.75663243 32.91184004 -87.15372498 39.96779882 -84.671875 47.18359375 C-84.27800598 48.32031021 -83.88413696 49.45702667 -83.47833252 50.62818909 C-82.6529124 53.01342765 -81.82943526 55.3993394 -81.0078125 57.78588867 C-79.74492667 61.4522286 -78.47446125 65.11587976 -77.203125 68.77929688 C-76.40059209 71.10140717 -75.59849315 73.42366751 -74.796875 75.74609375 C-74.41569519 76.84497421 -74.03451538 77.94385468 -73.64178467 79.07603455 C-73.2943219 80.08791336 -72.94685913 81.09979218 -72.58886719 82.14233398 C-72.28116394 83.03452133 -71.97346069 83.92670868 -71.65643311 84.84593201 C-71 87 -71 87 -71 89 C-70.14019531 89.268125 -69.28039062 89.53625 -68.39453125 89.8125 C-65.01203518 90.99578976 -61.90562163 92.42826783 -58.6875 94 C-48.48135971 98.72293174 -40.23684651 99.28771442 -29 99 C-33.56164742 97.1943479 -38.11366488 95.66668456 -42.83007812 94.30639648 C-54.86894672 90.77088538 -64.733017 85.27908079 -71.1640625 73.94921875 C-74.17349085 66.48189886 -74.36728781 56.94327132 -72.23828125 49.24609375 C-71.2954332 47.04363051 -70.24493393 45.04463108 -69 43 C-68.4225 41.96875 -67.845 40.9375 -67.25 39.875 C-61.25554309 32.21541617 -54.64300242 27.63941791 -45 26 C-29.93059528 24.87901792 -14.77018009 25.11490995 -1 32 C-0.67 21.44 -0.34 10.88 0 0 Z " fill="#BDBDBD" transform="translate(791,189)"/>
<path d="M0 0 C12.21 0 24.42 0 37 0 C41.50049149 10.12610585 41.50049149 10.12610585 42.9987793 14.45629883 C43.33560226 15.42372513 43.67242523 16.39115143 44.01945496 17.38789368 C44.36752701 18.40070908 44.71559906 19.41352448 45.07421875 20.45703125 C45.44352005 21.52241623 45.81282135 22.58780121 46.1933136 23.68547058 C46.96740063 25.92110133 47.73960549 28.1573846 48.51000977 30.39428711 C49.69043886 33.82103141 50.87695998 37.24561989 52.06445312 40.66992188 C52.81806403 42.84883534 53.57133138 45.02786767 54.32421875 47.20703125 C54.67836349 48.2299678 55.03250824 49.25290436 55.39738464 50.30683899 C55.72475113 51.25850449 56.05211761 52.21016998 56.3894043 53.19067383 C56.67712204 54.02512527 56.96483978 54.85957672 57.26127625 55.71931458 C57.93065695 57.78591498 58.47313872 59.89255488 59 62 C59.33 41.87 59.66 21.74 60 1 C71.55 1 83.1 1 95 1 C95 24.43 95 47.86 95 72 C102.59 72 110.18 72 118 72 C118 48.57 118 25.14 118 1 C139.78 1 161.56 1 184 1 C184 24.43 184 47.86 184 72 C192.58 72 201.16 72 210 72 C210.66 69.03 211.32 66.06 212 63 C212.5670467 61.11453259 213.1682569 59.23871281 213.81591797 57.37939453 C214.33688553 55.87205246 214.33688553 55.87205246 214.86837769 54.33425903 C215.23923492 53.27778168 215.61009216 52.22130432 215.9921875 51.1328125 C216.37939972 50.0174411 216.76661194 48.9020697 217.16555786 47.75289917 C218.39736123 44.20861802 219.63615722 40.66682593 220.875 37.125 C221.69966072 34.75405993 222.52388358 32.38296751 223.34765625 30.01171875 C224.8709798 25.63338279 226.39503567 21.25531242 227.92529297 16.87939453 C228.23014618 16.00719269 228.53499939 15.13499084 228.84909058 14.23635864 C230.53998796 9.48155324 232.27538868 4.74268112 234 0 C246.54 0 259.08 0 272 0 C279.16872631 19.94776016 286.13884735 39.94432304 293 60 C293.33 40.53 293.66 21.06 294 1 C302.641875 0.9175 311.28375 0.835 320.1875 0.75 C322.88832764 0.71358398 325.58915527 0.67716797 328.37182617 0.63964844 C330.55386566 0.62794722 332.735914 0.61775881 334.91796875 0.609375 C336.01741821 0.58891113 337.11686768 0.56844727 338.24963379 0.54736328 C349.6237477 0.54234104 361.3823491 3.12944383 370 11 C378.67928447 21.41888243 378.9993347 32.34498063 378.29003906 45.39111328 C377.49149141 52.57400909 374.06928539 58.51865674 368.625 63.25 C367.75875 63.8275 366.8925 64.405 366 65 C366.63903655 68.18350676 367.75791338 70.54083792 369.44140625 73.30859375 C369.93930664 74.13246582 370.43720703 74.95633789 370.95019531 75.80517578 C371.48225586 76.67384277 372.01431641 77.54250977 372.5625 78.4375 C373.37025879 79.77143799 373.37025879 79.77143799 374.19433594 81.13232422 C376.63068488 85.14859532 379.08750698 89.15143855 381.57421875 93.13671875 C381.94667725 93.73492432 382.31913574 94.33312988 382.70288086 94.94946289 C383.68712744 96.52439512 384.67923809 98.09440495 385.671875 99.6640625 C387 102 387 102 387 104 C381.45042917 104.32296056 375.90637906 104.55788727 370.34960938 104.71411133 C368.4632236 104.77924271 366.57748828 104.86778972 364.69335938 104.98071289 C352.20080895 105.71032538 352.20080895 105.71032538 347 104 C342.91450023 100.21460201 341.06443355 96.10752545 339 91 C338.19098345 89.60812919 337.35386426 88.23148076 336.46875 86.88671875 C334.64583333 83.92447917 332.82291667 80.96223958 331 78 C330.67 86.58 330.34 95.16 330 104 C310.53 104 291.06 104 271 104 C269.02 98.39 267.04 92.78 265 87 C253.12 86.505 253.12 86.505 241 86 C240.01 89.63 239.02 93.26 238 97 C236.515 100.465 236.515 100.465 235 104 C169.66 104 104.32 104 37 104 C31 89 31 89 31 86 C23.08 86.33 15.16 86.66 7 87 C5.02 92.61 3.04 98.22 1 104 C-10.88 104 -22.76 104 -35 104 C-33.87494547 96.12461826 -33.87494547 96.12461826 -32.56396484 92.29785156 C-32.27157425 91.43463287 -31.97918365 90.57141418 -31.67793274 89.68203735 C-31.35882431 88.76087128 -31.03971588 87.8397052 -30.7109375 86.890625 C-30.37535324 85.90621429 -30.03976898 84.92180359 -29.6940155 83.90756226 C-28.59390501 80.6862046 -27.48471771 77.46805946 -26.375 74.25 C-25.61021844 72.01884673 -24.84581823 69.78756271 -24.08178711 67.55615234 C-21.73136077 60.70058072 -19.36679321 53.84993512 -17 47 C-16.25309184 44.83561219 -15.50618428 42.67122417 -14.75927734 40.50683594 C-12.70014246 34.54397506 -10.63300727 28.58392017 -8.5625 22.625 C-8.24230896 21.70158813 -7.92211792 20.77817627 -7.59222412 19.82678223 C-6.69077529 17.22982183 -5.7855271 14.63422113 -4.87890625 12.0390625 C-4.61506638 11.27782074 -4.3512265 10.51657898 -4.07939148 9.73226929 C-2.89122339 6.34496227 -1.61009378 3.22018757 0 0 Z " fill="#BDBDBD" transform="translate(925,215)"/>
<path d="M0 0 C2.79520902 2.50864137 5.08642058 5.07648478 7.32421875 8.0859375 C5.92817932 7.66996187 4.53240676 7.25309067 3.13671875 6.8359375 C2.21632812 6.56265625 1.2959375 6.289375 0.34765625 6.0078125 C-1.65487396 5.39722189 -3.65008006 4.76202813 -5.63671875 4.1015625 C-28.62991932 -3.42769713 -52.54530429 -4.85375031 -74.9609375 5.62109375 C-81.4568516 8.95642275 -87.11758865 12.72191131 -92.65234375 17.484375 C-94.67578125 19.0859375 -94.67578125 19.0859375 -97.67578125 20.0859375 C-97.67578125 20.7459375 -97.67578125 21.4059375 -97.67578125 22.0859375 C-96.39703125 22.1271875 -95.11828125 22.1684375 -93.80078125 22.2109375 C-86.25353784 23.07857336 -80.00149862 26.97813855 -75.30078125 32.8984375 C-74.39054351 34.27155182 -73.51448751 35.66799973 -72.67578125 37.0859375 C-72.26328125 37.75238281 -71.85078125 38.41882813 -71.42578125 39.10546875 C-67.48321406 46.48409277 -67.46684912 54.88538329 -69.3359375 62.92578125 C-72.47770878 71.75266248 -78.15624844 77.9460956 -86.4921875 82.12109375 C-95.47649826 86.09090548 -104.43008109 86.16783755 -113.67578125 83.0859375 C-116.92578125 81.1484375 -116.92578125 81.1484375 -119.67578125 79.0859375 C-120.45953125 78.5496875 -121.24328125 78.0134375 -122.05078125 77.4609375 C-122.58703125 77.0071875 -123.12328125 76.5534375 -123.67578125 76.0859375 C-123.67578125 75.4259375 -123.67578125 74.7659375 -123.67578125 74.0859375 C-124.33578125 74.0859375 -124.99578125 74.0859375 -125.67578125 74.0859375 C-127.41647435 85.6888975 -128.04052649 97.04687654 -127.98828125 108.7734375 C-127.98679077 109.60432892 -127.98530029 110.43522034 -127.98376465 111.29129028 C-127.9249628 129.56001564 -125.97136308 146.55507637 -120.67578125 164.0859375 C-120.32902344 165.31957031 -119.98226562 166.55320312 -119.625 167.82421875 C-115.98001638 180.47756479 -110.96825247 192.92110927 -104.83984375 204.578125 C-104.26363281 205.81949219 -104.26363281 205.81949219 -103.67578125 207.0859375 C-104.00578125 207.7459375 -104.33578125 208.4059375 -104.67578125 209.0859375 C-137.45757405 172.40985371 -159.86671865 125.0141273 -159.86108398 75.18676758 C-159.8632522 73.05203741 -159.88141278 70.91784113 -159.90039062 68.78320312 C-159.95274071 56.32531977 -159.31865435 43.74070867 -155.36328125 31.8359375 C-155.14526855 31.17956299 -154.92725586 30.52318848 -154.70263672 29.84692383 C-146.32712903 5.09672659 -132.0654668 -13.88508136 -108.67578125 -25.9140625 C-71.68206634 -44.00939628 -28.83830023 -23.99683377 0 0 Z " fill="#FFAC43" transform="translate(175.67578125,179.9140625)"/>
<path d="M0 0 C0.99 0.495 0.99 0.495 2 1 C1.53851563 1.4640625 1.07703125 1.928125 0.6015625 2.40625 C-18.10529126 22.22220576 -27.20849465 46.85706392 -26.4609375 73.890625 C-25.88360834 84.36083186 -22.85430021 93.73269959 -18 103 C-17.64808594 102.49210937 -17.29617187 101.98421875 -16.93359375 101.4609375 C-10.9890523 93.17272566 -4.41676871 86.73359362 6 85 C16.61334476 84.08428001 24.5358184 85.8448969 32.8125 92.6875 C38.79091556 98.34847757 42.60421149 104.84826101 43.23828125 113.1015625 C43.47330871 124.25918207 41.60020774 132.05275406 33.8828125 140.3046875 C31.13075648 142.78267985 28.32046229 144.37365112 25 146 C42.40863564 161.42405118 71.5994115 166.43759122 94 169 C95.08796875 169.13019531 96.1759375 169.26039063 97.296875 169.39453125 C114.26054597 170.97696324 132.06061865 171.12557751 148.8984375 168.4375 C151.97664684 168.00329415 154.89598862 167.92497858 158 168 C155.88966787 170.11033213 154.55604048 170.71237354 151.80859375 171.76953125 C150.95475098 172.09864502 150.1009082 172.42775879 149.22119141 172.7668457 C147.84326416 173.28444458 147.84326416 173.28444458 146.4375 173.8125 C145.49310059 174.16852295 144.54870117 174.5245459 143.57568359 174.89135742 C100.51699965 190.88882941 49.49788012 194.77578938 6 178 C4.89470947 177.58476074 4.89470947 177.58476074 3.76708984 177.16113281 C-24.772232 166.33082606 -48.87505409 148.22308062 -61.8984375 120.01953125 C-68.74250895 103.61776048 -68.99543165 82.25971835 -62.66796875 65.65234375 C-62.12213716 64.43030786 -61.56564007 63.2129943 -61 62 C-60.68885254 61.31437988 -60.37770508 60.62875977 -60.05712891 59.92236328 C-48.93224648 35.95069765 -30.54933687 18.60880322 -8.3125 4.8125 C-7.52166016 4.3182251 -6.73082031 3.8239502 -5.91601562 3.31469727 C-5.17673828 2.86666748 -4.43746094 2.4186377 -3.67578125 1.95703125 C-3.01489502 1.55460205 -2.35400879 1.15217285 -1.6730957 0.73754883 C-1.12097412 0.49415771 -0.56885254 0.2507666 0 0 Z " fill="#CB6DE6" transform="translate(147,300)"/>
<path d="M0 0 C16.14211879 13.75069378 26.05085207 32.76916058 28.375 53.8125 C30.35261031 81.28117207 23.24858558 104.98942621 12.375 129.8125 C12.045 129.8125 11.715 129.8125 11.375 129.8125 C11.39594727 128.99797363 11.41689453 128.18344727 11.43847656 127.34423828 C11.89313025 106.9452508 11.58197351 88.57438497 2.375 69.8125 C1.9109375 68.85730469 1.446875 67.90210937 0.96875 66.91796875 C-1.86806956 61.40276903 -5.00542059 56.84717034 -9.3046875 52.37109375 C-10.625 50.8125 -10.625 50.8125 -10.625 48.8125 C-11.21023438 48.54953125 -11.79546875 48.2865625 -12.3984375 48.015625 C-14.72475681 46.75859632 -16.33230492 45.37410982 -18.25 43.5625 C-22.65053755 39.6020162 -27.47337155 36.69445608 -32.625 33.8125 C-32.57859375 34.38355469 -32.5321875 34.95460937 -32.484375 35.54296875 C-32.05831288 45.11415 -34.07257804 54.29705344 -40.25 61.8125 C-46.90197516 68.60175795 -55.16663278 71.93001691 -64.5625 72.25 C-73.29202696 72.31767075 -80.10397964 69.71925129 -86.78125 63.94921875 C-93.95249655 56.36775258 -96.96332014 47.31611034 -96.92578125 37.04296875 C-96.47433991 32.19437149 -94.77154024 28.14391155 -92.625 23.8125 C-139.40171401 29.9068376 -177.52902574 51.97768983 -211.625 83.8125 C-211.625 79.65958598 -209.5894582 77.03270727 -207.4375 73.625 C-206.9933374 72.91956055 -206.5491748 72.21412109 -206.09155273 71.48730469 C-200.8915226 63.42122183 -194.89004595 56.06778365 -188.625 48.8125 C-188.1491748 48.26078125 -187.67334961 47.7090625 -187.18310547 47.140625 C-144.92447768 -1.37798425 -59.25629875 -45.93384814 0 0 Z " fill="#3971C2" transform="translate(288.625,57.1875)"/>
<path d="M0 0 C31.52021604 3.99972438 63.09161046 19.81521094 88 39 C88.98871094 39.75796875 89.97742188 40.5159375 90.99609375 41.296875 C102.47531737 50.42693965 113.11293473 60.30649306 122 72 C122.74765625 72.94359375 123.4953125 73.8871875 124.265625 74.859375 C129.95538416 82.17477963 134.70837281 89.81170771 139 98 C139.31211426 98.59151855 139.62422852 99.18303711 139.94580078 99.79248047 C151.02217936 121.12798521 156.54580533 147.02773654 149.4375 170.5 C142.59936979 191.48976868 129.18957634 208.10565536 109.3125 218.25 C101.50363648 222.05610205 93.44445588 224.94721354 85 227 C83.93515381 227.26184082 82.87030762 227.52368164 81.77319336 227.79345703 C72.72674058 229.82401221 64.14865315 230.41318785 54.89135742 230.28125 C52.67154117 230.24977371 50.45244075 230.24022293 48.23242188 230.234375 C40.76976897 230.19327046 33.41572039 229.9077486 26 229 C28.96047933 226.03952067 32.66279735 225.74621342 36.625 224.8125 C58.53361935 219.31304447 79.85752408 208.0042148 92.48046875 188.59375 C98.35373946 178.56842416 103.95752704 167.72782086 105 156 C103.96875 156.474375 102.9375 156.94875 101.875 157.4375 C98.56472003 158.84105871 95.60365603 159.6396344 92 160 C91.35546875 160.07605469 90.7109375 160.15210938 90.046875 160.23046875 C82.1480889 160.75610739 74.93496117 157.9284942 68.6328125 153.23828125 C61.63149331 146.7257334 57.87564049 139.9523525 57.41015625 130.38183594 C57.25348255 119.76719276 59.43795571 112.68789292 66.625 104.6875 C73.99169128 97.88641611 81.52923277 95.38652638 91.46875 95.7265625 C94 96 94 96 97 97 C90.82752724 84.63026544 84.50473933 72.91862575 76 62 C75.01386719 60.68128906 75.01386719 60.68128906 74.0078125 59.3359375 C63.02187287 45.1867312 49.61395499 32.34819787 35 22 C34.31470215 21.51337891 33.6294043 21.02675781 32.92333984 20.52539062 C22.38603086 13.12041464 11.50827132 6.76870309 0 1 C0 0.67 0 0.34 0 0 Z " fill="#FF1F58" transform="translate(310,69)"/>
<path d="M0 0 C4.29 0 8.58 0 13 0 C13.17669115 5.37847855 12.57919809 10.18725736 11.4375 15.4375 C11.26041504 16.2531543 11.08333008 17.06880859 10.90087891 17.90917969 C3.92374258 48.97696299 -7.34083601 80.02161519 -29 104 C-29.76183594 104.86882812 -30.52367187 105.73765625 -31.30859375 106.6328125 C-33.50858476 109.11846845 -35.74509403 111.56419672 -38 114 C-38.5259375 114.59167969 -39.051875 115.18335938 -39.59375 115.79296875 C-54.03579089 131.30342593 -76.88472586 144.09479097 -98.24780273 145.10644531 C-121.60829717 145.69933932 -141.33427516 140.68441042 -158.7746582 124.18237305 C-178.8781531 104.66283839 -192.07492688 77.87242936 -196 50 C-195.67 49.01 -195.34 48.02 -195 47 C-194.5875 47.75023437 -194.175 48.50046875 -193.75 49.2734375 C-189.71870175 56.41819378 -185.3351467 62.77732422 -180 69 C-178.95005859 70.2684375 -178.95005859 70.2684375 -177.87890625 71.5625 C-164.36152373 87.36892234 -144.69350229 97.77443202 -124 100 C-120.35277926 100.11055395 -116.71093569 100.09491946 -113.0625 100.0625 C-112.09248047 100.05798828 -111.12246094 100.05347656 -110.12304688 100.04882812 C-107.7486324 100.0371315 -105.37434979 100.02074086 -103 100 C-103.55429687 99.27554688 -104.10859375 98.55109375 -104.6796875 97.8046875 C-105.76636719 96.35449219 -105.76636719 96.35449219 -106.875 94.875 C-107.95394531 93.44800781 -107.95394531 93.44800781 -109.0546875 91.9921875 C-113.9271323 84.49762382 -114.11525925 75.67081005 -113 67 C-111.83761353 63.2438586 -110.2254277 60.22687016 -108 57 C-106.9171875 55.39125 -106.9171875 55.39125 -105.8125 53.75 C-98.24748653 46.35309794 -90.61580209 43.70403481 -80.26391602 43.68310547 C-71.82185248 43.83696015 -64.82096385 46.32482785 -58.6015625 52.17578125 C-52.97582408 58.58363452 -50.27435922 64.4948641 -50 73 C-28.94285505 55.76607969 -14.90571405 32.31151026 -3.83642578 7.81494141 C-2.62109714 5.17782725 -1.31610979 2.58794677 0 0 Z " fill="#7ED957" transform="translate(440,319)"/>
<path d="M0 0 C8.91 0 17.82 0 27 0 C28.32773438 3.86203125 29.65546875 7.7240625 31.0234375 11.703125 C32.11478538 14.87451041 33.20646301 18.04578191 34.2983551 21.21697998 C35.43330266 24.51350651 36.56773248 27.81020862 37.70068359 31.10742188 C38.79533104 34.29296529 39.89131002 37.47804724 40.98853302 40.66270447 C41.42881848 41.94066491 41.86885615 43.21871074 42.30864716 44.49684143 C44.78644618 51.69324654 47.30154167 58.87387 49.89550781 66.02929688 C50.24671283 67.00063883 50.24671283 67.00063883 50.60501289 67.99160385 C51.72328191 71.08308768 52.84823932 74.171806 53.98471069 77.25665283 C54.38114777 78.34854919 54.77758484 79.44044556 55.18603516 80.56542969 C55.71301498 82.00000519 55.71301498 82.00000519 56.25064087 83.46356201 C57 86 57 86 57 90 C50.07 90 43.14 90 36 90 C35.175 87.586875 34.35 85.17375 33.5 82.6875 C33.23896484 81.93170654 32.97792969 81.17591309 32.70898438 80.3972168 C31.72282302 77.47512677 31 75.10385594 31 72 C13.675 72.495 13.675 72.495 -4 73 C-5.98 78.61 -7.96 84.22 -10 90 C-34.42 90 -58.84 90 -84 90 C-84 60.63 -84 31.26 -84 1 C-77.07 1 -70.14 1 -63 1 C-63 24.43 -63 47.86 -63 72 C-52.44 72 -41.88 72 -31 72 C-30.505 78.93 -30.505 78.93 -30 86 C-29.30777344 83.91171875 -28.61554688 81.8234375 -27.90234375 79.671875 C-22.29760928 62.78409126 -16.64830942 45.91116565 -10.93240356 29.06066895 C-10.27129278 27.1099247 -9.6116756 25.15867361 -8.95358276 23.20690918 C-8.02406412 20.45158924 -7.08893019 17.69823671 -6.15234375 14.9453125 C-5.74048828 13.71933853 -5.74048828 13.71933853 -5.3203125 12.46859741 C-5.05855225 11.70310577 -4.79679199 10.93761414 -4.52709961 10.14892578 C-4.30348251 9.48917755 -4.07986542 8.82942932 -3.84947205 8.14968872 C-2.74534583 5.35556773 -1.34359271 2.68718541 0 0 Z " fill="#020202" transform="translate(1165,222)"/>
<path d="M0 0 C24 0 24 0 28.6875 4.25 C29.48500478 5.81015716 30.27569237 7.37526016 30.99462891 8.97314453 C33.21099785 13.44140459 36.14084239 17.52460054 38.875 21.6875 C39.44822998 22.59725586 40.02145996 23.50701172 40.61206055 24.44433594 C41.15000244 25.29157227 41.68794434 26.13880859 42.2421875 27.01171875 C42.7254248 27.77959717 43.20866211 28.54747559 43.70654297 29.33862305 C44.13338379 29.88687744 44.56022461 30.43513184 45 31 C45.66 31 46.32 31 47 31 C48.60290011 28.85610916 50.0797259 26.71433391 51.53515625 24.47265625 C51.97387558 23.80914658 52.41259491 23.1456369 52.86460876 22.46202087 C54.27045791 20.33308138 55.66669538 18.19803552 57.0625 16.0625 C58.46381893 13.93187189 59.86704349 11.80251377 61.27110291 9.6736908 C62.145664 8.3462214 63.0182403 7.01744194 63.88868713 5.68727112 C66.89234637 1.10765363 66.89234637 1.10765363 68 0 C75.92 0 83.84 0 92 0 C92 29.37 92 58.74 92 89 C85.07 89 78.14 89 71 89 C70.67 70.52 70.34 52.04 70 33 C61.39014227 45.42498941 61.39014227 45.42498941 53.4375 58.15625 C49.96004726 60.78663092 47.1620277 61.07790236 42.84814453 60.89501953 C36.92436988 59.03349391 34.41792092 53.28062436 31.4375 48.1875 C30.74076172 47.06794922 30.04402344 45.94839844 29.32617188 44.79492188 C28.04013525 42.72207485 26.77001521 40.63920733 25.52124023 38.54370117 C24.39763325 36.66489181 23.21432695 34.82149042 22 33 C21.67 51.48 21.34 69.96 21 89 C14.07 89 7.14 89 0 89 C0 59.63 0 30.26 0 0 Z " fill="#010101" transform="translate(539,223)"/>
<path d="M0 0 C7.38375 -0.061875 14.7675 -0.12375 22.375 -0.1875 C25.8407251 -0.22846802 25.8407251 -0.22846802 29.37646484 -0.27026367 C31.23795044 -0.27903755 33.09944185 -0.28667935 34.9609375 -0.29296875 C36.37403198 -0.3159906 36.37403198 -0.3159906 37.81567383 -0.33947754 C46.72141913 -0.34293922 54.93317093 1.27923361 62 7 C67.73348485 13.06111255 69.55412439 19.27142716 69.4375 27.375 C69.42847656 28.12378418 69.41945313 28.87256836 69.41015625 29.64404297 C69.15070789 37.93377848 67.16897332 43.25137294 61.0625 49 C58.06453045 51.57479691 55.85901323 52.31911464 52 53 C60.97582958 68.11529977 60.97582958 68.11529977 70.40795898 82.94775391 C73 86.90393143 73 86.90393143 73 88 C65.07455314 89.88653458 56.68085237 91.31046638 49 88 C40.67810447 79.65188 34.70593421 67.11780264 31 56 C27.7 56 24.4 56 21 56 C21 66.56 21 77.12 21 88 C14.07 88 7.14 88 0 88 C0 58.96 0 29.92 0 0 Z " fill="#010101" transform="translate(1227,224)"/>
<path d="M0 0 C8.91 0 17.82 0 27 0 C31.49965266 11.24913164 31.49965266 11.24913164 33.28662109 16.46508789 C33.88777237 18.21354759 33.88777237 18.21354759 34.50106812 19.99732971 C35.13089096 21.84136635 35.13089096 21.84136635 35.7734375 23.72265625 C36.22393022 25.03535622 36.67466999 26.34797143 37.12564087 27.6605072 C38.30584772 31.09726866 39.4831755 34.53500884 40.659729 37.97302246 C42.53038761 43.43766337 44.40547079 48.90078836 46.28040314 54.36396408 C46.95518601 56.33089121 47.62920094 58.29808033 48.30316162 60.26528931 C50.95020912 67.98160025 53.62182284 75.68805623 56.4078064 83.35548401 C58 87.78695937 58 87.78695937 58 90 C51.07 90 44.14 90 37 90 C35.02 84.39 33.04 78.78 31 73 C13.675 72.505 13.675 72.505 -4 72 C-4.99 75.63 -5.98 79.26 -7 83 C-7.99 85.31 -8.98 87.62 -10 90 C-16.93 90 -23.86 90 -31 90 C-23.93857636 68.56650235 -16.69395501 47.20051073 -9.3125 25.875 C-8.90751282 24.70360474 -8.50252563 23.53220947 -8.08526611 22.32531738 C-6.92969317 18.98449596 -5.77196258 15.64443196 -4.61328125 12.3046875 C-4.08748726 10.78520004 -4.08748726 10.78520004 -3.55107117 9.23501587 C-3.2291127 8.30909637 -2.90715424 7.38317688 -2.57543945 6.42919922 C-2.15340996 5.21307449 -2.15340996 5.21307449 -1.72285461 3.97238159 C-1 2 -1 2 0 0 Z " fill="#020202" transform="translate(930,222)"/>
<path d="M0 0 C8.91 0 17.82 0 27 0 C31.49965266 11.24913164 31.49965266 11.24913164 33.28662109 16.46508789 C33.88777237 18.21354759 33.88777237 18.21354759 34.50106812 19.99732971 C35.13089096 21.84136635 35.13089096 21.84136635 35.7734375 23.72265625 C36.22393022 25.03535622 36.67466999 26.34797143 37.12564087 27.6605072 C38.30584772 31.09726866 39.4831755 34.53500884 40.659729 37.97302246 C42.53038761 43.43766337 44.40547079 48.90078836 46.28040314 54.36396408 C46.95518601 56.33089121 47.62920094 58.29808033 48.30316162 60.26528931 C50.95020912 67.98160025 53.62182284 75.68805623 56.4078064 83.35548401 C58 87.78695937 58 87.78695937 58 90 C51.07 90 44.14 90 37 90 C35.02 84.39 33.04 78.78 31 73 C13.675 72.505 13.675 72.505 -4 72 C-4.99 75.63 -5.98 79.26 -7 83 C-7.99 85.31 -8.98 87.62 -10 90 C-16.93 90 -23.86 90 -31 90 C-23.93857636 68.56650235 -16.69395501 47.20051073 -9.3125 25.875 C-8.90751282 24.70360474 -8.50252563 23.53220947 -8.08526611 22.32531738 C-6.92969317 18.98449596 -5.77196258 15.64443196 -4.61328125 12.3046875 C-4.08748726 10.78520004 -4.08748726 10.78520004 -3.55107117 9.23501587 C-3.2291127 8.30909637 -2.90715424 7.38317688 -2.57543945 6.42919922 C-2.15340996 5.21307449 -2.15340996 5.21307449 -1.72285461 3.97238159 C-1 2 -1 2 0 0 Z " fill="#020202" transform="translate(666,222)"/>
<path d="M0 0 C8.91 0 17.82 0 27 0 C31.49965266 11.24913164 31.49965266 11.24913164 33.28662109 16.46508789 C33.88777237 18.21354759 33.88777237 18.21354759 34.50106812 19.99732971 C35.13089096 21.84136635 35.13089096 21.84136635 35.7734375 23.72265625 C36.22393022 25.03535622 36.67466999 26.34797143 37.12564087 27.6605072 C38.30584772 31.09726866 39.4831755 34.53500884 40.659729 37.97302246 C42.53038761 43.43766337 44.40547079 48.90078836 46.28040314 54.36396408 C46.95518601 56.33089121 47.62920094 58.29808033 48.30316162 60.26528931 C50.95020912 67.98160025 53.62182284 75.68805623 56.4078064 83.35548401 C58 87.78695937 58 87.78695937 58 90 C51.07 90 44.14 90 37 90 C35.02 84.39 33.04 78.78 31 73 C13.675 72.505 13.675 72.505 -4 72 C-4.99 75.63 -5.98 79.26 -7 83 C-7.99 85.31 -8.98 87.62 -10 90 C-16.93 90 -23.86 90 -31 90 C-23.93857636 68.56650235 -16.69395501 47.20051073 -9.3125 25.875 C-8.90751282 24.70360474 -8.50252563 23.53220947 -8.08526611 22.32531738 C-6.92969317 18.98449596 -5.77196258 15.64443196 -4.61328125 12.3046875 C-4.08748726 10.78520004 -4.08748726 10.78520004 -3.55107117 9.23501587 C-3.2291127 8.30909637 -2.90715424 7.38317688 -2.57543945 6.42919922 C-2.15340996 5.21307449 -2.15340996 5.21307449 -1.72285461 3.97238159 C-1 2 -1 2 0 0 Z " fill="#020202" transform="translate(477,222)"/>
<path d="M0 0 C0 5.94 0 11.88 0 18 C-3.98435613 17.20312877 -6.9928544 16.27596827 -10.64453125 14.71875 C-16.78796524 12.84413664 -23.42801024 12.74897067 -29.8125 12.625 C-30.56208984 12.58761719 -31.31167969 12.55023438 -32.08398438 12.51171875 C-34.53651466 12.41584333 -34.53651466 12.41584333 -38 13 C-40.42778411 15.8308342 -40.96001833 17.346966 -41.1875 21.0625 C-39.76937703 24.57048839 -38.25153182 25.51580199 -34.8359375 27.0078125 C-31.13885528 28.30128204 -27.39212415 29.3685123 -23.625 30.4375 C-11.81834239 33.79240422 -3.36451695 37.28935338 2.875 48.3125 C5.33839427 56.38695898 4.3862786 64.30627123 1 72 C-3.17814837 79.4033857 -11.29365754 83.36820363 -19.25390625 85.64453125 C-32.29715621 87.3329178 -45.66883936 86.75131061 -58 82 C-58.95261719 81.649375 -59.90523437 81.29875 -60.88671875 80.9375 C-63.39754899 78.63551886 -63.34421538 78.05346761 -63.48828125 74.76953125 C-63.45508749 73.11648217 -63.39551184 71.46379711 -63.3125 69.8125 C-63.28994141 68.96751953 -63.26738281 68.12253906 -63.24414062 67.25195312 C-63.18524963 65.16721202 -63.09556798 63.08338196 -63 61 C-59.10355951 61.69398569 -55.4485193 62.77485359 -51.6875 64 C-46.73266539 65.53139345 -42.17803879 66.77608481 -37 67 C-35.94425781 67.0515625 -34.88851562 67.103125 -33.80078125 67.15625 C-25.87598803 67.52834631 -25.87598803 67.52834631 -19 64 C-17.83974601 60.54578685 -17.83974601 60.54578685 -18 57 C-22.42150983 51.25905549 -31.38156172 49.86441508 -38 48.125 C-47.05913709 45.60145365 -54.62285404 41.89768312 -60 34 C-63.56937535 26.95016613 -63.34292062 16.6408838 -61.16015625 9.09765625 C-57.65717661 2.19784787 -51.79614305 -2.20896403 -44.625 -4.875 C-29.5344267 -8.82284348 -14.15579198 -5.44453538 0 0 Z " fill="#030303" transform="translate(788,228)"/>
<path d="M0 0 C6.93 0 13.86 0 21 0 C22.27617188 2.44277344 23.55234375 4.88554687 24.8671875 7.40234375 C26.10359978 9.7594364 27.34198401 12.11548266 28.58056641 14.47143555 C29.4420126 16.11260265 30.30139624 17.75485407 31.15869141 19.39819336 C32.38947884 21.75660974 33.62756881 24.11105989 34.8671875 26.46484375 C35.25059296 27.20339096 35.63399841 27.94193817 36.02902222 28.7028656 C37.82444747 32.49408571 37.82444747 32.49408571 41 35 C41.40424194 33.69011108 41.40424194 33.69011108 41.81665039 32.35375977 C42.95253201 29.13453018 44.29840182 26.33117327 45.93359375 23.33984375 C46.50013672 22.29892578 47.06667969 21.25800781 47.65039062 20.18554688 C48.53500977 18.57776367 48.53500977 18.57776367 49.4375 16.9375 C50.02337891 15.86177734 50.60925781 14.78605469 51.21289062 13.67773438 C52.79665924 10.77805359 54.38245602 7.88097911 56 5 C56.45745605 4.07106934 56.91491211 3.14213867 57.38623047 2.18505859 C59 0 59 0 61.26831055 -0.56762695 C62.13238525 -0.54144287 62.99645996 -0.51525879 63.88671875 -0.48828125 C64.82451172 -0.47216797 65.76230469 -0.45605469 66.72851562 -0.43945312 C67.70498047 -0.39755859 68.68144531 -0.35566406 69.6875 -0.3125 C70.67556641 -0.28994141 71.66363281 -0.26738281 72.68164062 -0.24414062 C75.12261559 -0.18517988 77.56054868 -0.10295048 80 0 C77.74936288 5.90534145 74.68663006 11.32360743 71.6875 16.875 C70.76384644 18.6221228 70.76384644 18.6221228 69.8215332 20.40454102 C66.85840376 25.97965745 63.82093016 31.39879843 60.21875 36.59765625 C48.8680865 53.45283755 49.31601481 69.34383537 50 89 C43.4 89 36.8 89 30 89 C30.06703125 86.71707031 30.1340625 84.43414062 30.203125 82.08203125 C30.51080651 63.90639206 29.62965576 50.78455849 18.75976562 35.60302734 C15.43134811 30.67966614 12.76801721 25.37669798 10 20.125 C8.93974139 18.14723428 7.87736567 16.17060151 6.8125 14.1953125 C6.33167969 13.29973633 5.85085938 12.40416016 5.35546875 11.48144531 C4.14912354 9.27299922 2.90026343 7.09875398 1.625 4.9296875 C0 2 0 2 0 0 Z " fill="#020202" transform="translate(822,223)"/>
<path d="M0 0 C6.93 0 13.86 0 21 0 C21 23.43 21 46.86 21 71 C31.56 71 42.12 71 53 71 C53 76.94 53 82.88 53 89 C35.51 89 18.02 89 0 89 C0 59.63 0 30.26 0 0 Z " fill="#000000" transform="translate(992,223)"/>
<path d="M0 0 C7.26 0 14.52 0 22 0 C22 29.37 22 58.74 22 89 C14.74 89 7.48 89 0 89 C0 59.63 0 30.26 0 0 Z " fill="#080808" transform="translate(1050,223)"/>
<path d="M0 0 C7.26 0 14.52 0 22 0 C22 29.37 22 58.74 22 89 C14.74 89 7.48 89 0 89 C0 59.63 0 30.26 0 0 Z " fill="#080808" transform="translate(797,223)"/>
<path d="M0 0 C4.2384375 -0.0928125 4.2384375 -0.0928125 8.5625 -0.1875 C9.43849854 -0.21481201 10.31449707 -0.24212402 11.21704102 -0.27026367 C16.57978718 -0.32658613 20.28040068 0.39419806 25 3 C27.47631221 6.71446831 27.53805227 9.69558186 27 14 C25.73933169 17.05214433 24.88024307 18.50486327 22 20.125 C17.70892058 21.37656483 13.62875497 21.2104451 9.1875 21.125 C6.155625 21.08375 3.12375 21.0425 0 21 C0 14.07 0 7.14 0 0 Z " fill="#BDBDBD" transform="translate(1248,241)"/>
<path d="M0 0 C2.66178221 2.66178221 3.2101855 5.17979678 4.3828125 8.7578125 C4.60194305 9.42086395 4.82107361 10.08391541 5.04684448 10.76705933 C5.74521718 12.88456174 6.43519242 15.00469376 7.125 17.125 C7.59710565 18.561379 8.06975533 19.99757932 8.54296875 21.43359375 C9.7026717 24.95339393 10.85098133 28.47662541 12 32 C4.74 32 -2.52 32 -10 32 C-7.75 21.875 -7.75 21.875 -6.0546875 17.08984375 C-5.70019531 16.08115234 -5.34570312 15.07246094 -4.98046875 14.03320312 C-4.43326172 12.50083008 -4.43326172 12.50083008 -3.875 10.9375 C-3.50246094 9.88111328 -3.12992188 8.82472656 -2.74609375 7.73632812 C-1.83534623 5.15587683 -0.91990295 2.57719856 0 0 Z " fill="#B7B7B7" transform="translate(943,244)"/>
<path d="M0 0 C2.66178221 2.66178221 3.2101855 5.17979678 4.3828125 8.7578125 C4.60194305 9.42086395 4.82107361 10.08391541 5.04684448 10.76705933 C5.74521718 12.88456174 6.43519242 15.00469376 7.125 17.125 C7.59710565 18.561379 8.06975533 19.99757932 8.54296875 21.43359375 C9.7026717 24.95339393 10.85098133 28.47662541 12 32 C4.74 32 -2.52 32 -10 32 C-7.75 21.875 -7.75 21.875 -6.0546875 17.08984375 C-5.70019531 16.08115234 -5.34570312 15.07246094 -4.98046875 14.03320312 C-4.43326172 12.50083008 -4.43326172 12.50083008 -3.875 10.9375 C-3.50246094 9.88111328 -3.12992188 8.82472656 -2.74609375 7.73632812 C-1.83534623 5.15587683 -0.91990295 2.57719856 0 0 Z " fill="#B7B7B7" transform="translate(679,244)"/>
<path d="M0 0 C2.66178221 2.66178221 3.2101855 5.17979678 4.3828125 8.7578125 C4.60194305 9.42086395 4.82107361 10.08391541 5.04684448 10.76705933 C5.74521718 12.88456174 6.43519242 15.00469376 7.125 17.125 C7.59710565 18.561379 8.06975533 19.99757932 8.54296875 21.43359375 C9.7026717 24.95339393 10.85098133 28.47662541 12 32 C4.74 32 -2.52 32 -10 32 C-7.75 21.875 -7.75 21.875 -6.0546875 17.08984375 C-5.70019531 16.08115234 -5.34570312 15.07246094 -4.98046875 14.03320312 C-4.43326172 12.50083008 -4.43326172 12.50083008 -3.875 10.9375 C-3.50246094 9.88111328 -3.12992187 8.82472656 -2.74609375 7.73632812 C-1.83534623 5.15587683 -0.91990295 2.57719856 0 0 Z " fill="#B7B7B7" transform="translate(490,244)"/>
<path d="M0 0 C3.25146137 4.87719206 4.72958569 10.47960581 6.625 16 C7.04523438 17.20140625 7.46546875 18.4028125 7.8984375 19.640625 C8.29546875 20.79046875 8.6925 21.9403125 9.1015625 23.125 C9.46588379 24.17945313 9.83020508 25.23390625 10.20556641 26.3203125 C11 29 11 29 11 32 C3.74 32 -3.52 32 -11 32 C-9.16230713 24.64922852 -6.8711354 17.52351501 -4.375 10.375 C-4.06167725 9.47362305 -3.74835449 8.57224609 -3.42553711 7.64355469 C-3.12784424 6.79954102 -2.83015137 5.95552734 -2.5234375 5.0859375 C-2.1200415 3.9419751 -2.1200415 3.9419751 -1.70849609 2.77490234 C-1 1 -1 1 0 0 Z " fill="#B7B7B7" transform="translate(1178,244)"/>
<path d="M0 0 C6.6 0 13.2 0 20 0 C20 5.61 20 11.22 20 17 C13.4 17 6.8 17 0 17 C0 11.39 0 5.78 0 0 Z " fill="#000000" transform="translate(798,197)"/>
<path d="M0 0 C13.18859459 -0.78868672 24.8377769 1.79475546 36 9 C36 11.31 36 13.62 36 16 C35.43619629 15.62343262 34.87239258 15.24686523 34.29150391 14.85888672 C27.31455003 10.41469136 20.21103566 7.69333276 12.375 5.125 C11.18003906 4.7228125 9.98507812 4.320625 8.75390625 3.90625 C5.83928025 2.92693566 2.92153047 1.95847712 0 1 C0 0.67 0 0.34 0 0 Z " fill="#FBFBFB" transform="translate(754,247)"/>
<path d="M0 0 C4.29 0 8.58 0 13 0 C12 5 12 5 11 6 C9.14712498 6.07226502 7.29166122 6.0838122 5.4375 6.0625 C4.42558594 6.05347656 3.41367188 6.04445312 2.37109375 6.03515625 C1.58863281 6.02355469 0.80617188 6.01195312 0 6 C0 4.02 0 2.04 0 0 Z " fill="#FAFAFA" transform="translate(1255,249)"/>
</svg>
